<?xml version="1.0" encoding="utf-8"?>
<!-- Generator: Adobe Illustrator 19.1.0, SVG Export Plug-In . SVG Version: 6.00 Build 0)  -->
<svg version="1.1" id="Layer_1" xmlns="http://www.w3.org/2000/svg" xmlns:xlink="http://www.w3.org/1999/xlink" x="0px" y="0px"
	 viewBox="0 0 34 34" style="enable-background:new 0 0 34 34;" xml:space="preserve">
<style type="text/css">
	.st0{fill:#517FA4;}
	.st1{fill-rule:evenodd;clip-rule:evenodd;fill:#01ACED;}
	.st2{fill:#CD2027;}
	.st3{fill:#BF0000;}
	.st4{fill:#FFFFFF;}
</style>
<g>
	<path class="st0" d="M448.2,149.2c-2.1,0-3.8,1.6-3.8,3.8c0,2.1,1.7,3.8,3.8,3.8c2.1,0,3.8-1.7,3.8-3.8
		C451.9,150.8,450.3,149.2,448.2,149.2z M453.8,143.8c-1.8-0.2-3.7,0-5.5-0.1c0,0.1,0,0,0,0c-1.7,0-3.4-0.1-5.1,0
		c-2.5,0.1-4.1,1.6-4.1,4.1c-0.1,3.4-0.1,6.9,0,10.3c0.1,2.4,1.7,4,4.1,4.1c3.4,0.1,6.9,0.1,10.3,0c2.4-0.1,4-1.7,4.1-4.1
		c0.1-3.4,0.1-6.9,0-10.3C457.3,145.5,456,144.1,453.8,143.8z M448.1,158.8c-3.3,0-5.8-2.6-5.9-5.8c0-3.3,2.6-5.9,5.8-5.9
		c3.3,0,5.9,2.6,5.9,5.9C454,156.2,451.4,158.8,448.1,158.8z M454.2,148.2c-0.7,0-1.4-0.7-1.4-1.4c0-0.8,0.6-1.4,1.4-1.4
		c0.8,0,1.4,0.6,1.4,1.4C455.6,147.6,455,148.2,454.2,148.2z M448.2,132.9c-11.1,0-20,9-20,20c0,11.1,9,20.1,20,20.1
		c11.1,0,20.1-9,20.1-20.1C468.2,141.9,459.2,132.9,448.2,132.9z M459.6,157.3c0,0.3-0.1,0.7-0.1,1c-0.2,2.9-2,5.1-4.8,5.8
		c-0.7,0.2-1.5,0.2-2.2,0.3c-2.9,0-5.9,0-8.8,0c-0.3,0-0.6-0.1-0.9-0.1c-3.3-0.2-5.8-2.6-5.9-5.9c-0.1-3.6-0.1-7.2,0-10.8
		c0.1-3.3,2.6-5.8,5.9-5.9c3.6-0.1,7.2-0.1,10.8,0c2.9,0.1,5.1,1.9,5.7,4.8c0.2,0.7,0.2,1.4,0.3,2.1
		C459.6,151.4,459.6,154.4,459.6,157.3z"/>
</g>
<g>
	<path class="st1" d="M0,17C0,7.6,7.6,0,17,0c9.4,0,17,7.7,17,17c0,9.4-7.7,17-17.1,17C7.6,34,0,26.3,0,17 M9.6,15
		c0.1,0.8,0.3,1.5,0.8,2.1c0.5,0.6,1.1,1,1.8,1.3c0,0,0,0.1,0,0.1h-1.2c0.1,0.3,0.2,0.5,0.3,0.7c0.6,0.9,1.6,1.4,2.7,1.7
		c-1.4,1.1-3,1.3-4.7,1.4c0.1,0.1,0.1,0.2,0.2,0.2c2.1,1.1,4.2,1.5,6.5,1.1c4.7-0.7,7.8-4.9,8-9.5c0-0.4,0.1-0.7,0.4-0.9
		c0.3-0.3,0.7-0.7,1-1c0.1-0.1,0.1-0.2,0.3-0.4c-0.6,0.2-1,0.3-1.5,0.4l0-0.1c0.4-0.5,0.9-1,1.1-1.7c-0.3,0.1-0.6,0.2-0.8,0.4
		c-0.7,0.3-1.4,0.4-2.2-0.1c-1.1-0.8-2.3-0.7-3.5,0c-1.2,0.7-1.7,1.8-1.6,3.2c0,0.2,0,0.3,0,0.5c-2.9-0.2-5.1-1.5-7-3.6
		c-0.8,1.7-0.5,3.2,0.9,4.5c0,0-0.1,0-0.1,0.1C10.4,15.3,10,15.1,9.6,15"/>
</g>
<g>
	<path class="st2" d="M347.9,132.8c-10.7,0-19.2,8.7-19.2,19.4c0,10.7,8.6,19.5,19.2,19.5c10.6,0,19.3-8.7,19.3-19.5
		C367.2,141.5,358.6,132.7,347.9,132.8z M355.6,154c-1,1.8-2.3,3.1-4.4,3.6c-1.2,0.3-2.4,0.3-3.5-0.4c-0.4-0.2-0.8-0.5-1.2-0.8
		c-0.1-0.1-0.2-0.1-0.3-0.2c0,0.2-0.1,0.3-0.1,0.5c-0.3,1.3-0.6,2.6-1.1,3.9c-0.4,1.2-1,2.3-2,3.1c-0.1,0-0.1,0.1-0.2,0.1
		c-0.1,0-0.1,0.1-0.2,0.1c0-0.6-0.1-1.1-0.1-1.6c-0.1-2,0.3-4,0.7-5.9c0.4-1.5,0.8-3,1.1-4.4c0-0.1,0-0.3,0-0.4
		c-0.6-1.3-0.5-2.6,0-3.9c0.3-0.7,0.7-1.3,1.5-1.6c0.9-0.4,2.4,0,2.6,1.3c0.1,0.5,0,1-0.1,1.4c-0.2,1-0.6,1.9-0.8,2.9
		c-0.1,0.6-0.3,1.2-0.3,1.8c-0.1,0.9,0.4,1.5,1.2,1.7c1.4,0.4,2.6-0.1,3.5-1.2c0.7-0.8,1.1-1.8,1.4-2.8c0.3-1.1,0.4-2.2,0.3-3.4
		c-0.2-2.4-1.4-4-4-4.7c-1.4-0.4-2.7-0.1-4,0.4c-1.1,0.4-2,1.1-2.8,2c-1.3,1.6-1.8,3.3-1.3,5.3c0.1,0.4,0.3,0.7,0.6,1.1
		c0.5,0.8,0.4,1.6-0.1,2.3c-1.3-0.3-2.2-0.9-2.8-2.1c-0.6-1.3-0.6-2.7-0.4-4.1c0.3-1.8,1.1-3.3,2.5-4.6c1.6-1.4,3.4-2.3,5.5-2.5
		c1.6-0.1,3.3,0,4.8,0.5c1.3,0.5,2.5,1.2,3.4,2.2c0.9,1.1,1.5,2.3,1.6,3.7C357.1,149.8,356.7,151.9,355.6,154z"/>
</g>
<g>
	<path class="st3" d="M398.1,133.4c-10.7,0-19.2,8.7-19.2,19.4c0,10.7,8.6,19.5,19.2,19.5c10.6,0,19.3-8.7,19.3-19.5
		C417.4,142.1,408.7,133.4,398.1,133.4z"/>
	<g>
		<g id="Lozenge">
			<g>
				<path class="st4" d="M408.3,148.7c0,0-0.2-1.4-0.8-2.1c-0.8-0.8-1.7-0.8-2.1-0.9c-2.9-0.2-7.3-0.2-7.3-0.2h0c0,0-4.4,0-7.3,0.2
					c-0.4,0-1.3,0.1-2.1,0.9c-0.6,0.6-0.8,2.1-0.8,2.1s-0.2,1.7-0.2,3.4v1.6c0,1.7,0.2,3.4,0.2,3.4s0.2,1.4,0.8,2.1
					c0.8,0.8,1.8,0.8,2.3,0.9c1.7,0.2,7.1,0.2,7.1,0.2s4.4,0,7.3-0.2c0.4,0,1.3-0.1,2.1-0.9c0.6-0.6,0.8-2.1,0.8-2.1
					s0.2-1.7,0.2-3.4V152C408.5,150.4,408.3,148.7,408.3,148.7z M395.4,156.4l0-6.8l6.6,3.4L395.4,156.4z"/>
			</g>
		</g>
	</g>
</g>
</svg>
